<svg xmlns="http://www.w3.org/2000/svg" xmlns:xlink="http://www.w3.org/1999/xlink" width="350" zoomAndPan="magnify" viewBox="0 0 262.5 52.499999" height="70" preserveAspectRatio="xMidYMid meet" version="1.0"><defs><g/><clipPath id="1b3c578fed"><path d="M 53 2.394531 L 58 2.394531 L 58 8 L 53 8 Z M 53 2.394531 " clip-rule="nonzero"/></clipPath><clipPath id="64dfc163ba"><path d="M 34.128906 33 L 41 33 L 41 40 L 34.128906 40 Z M 34.128906 33 " clip-rule="nonzero"/></clipPath><clipPath id="21b5db2873"><path d="M 53 44 L 58 44 L 58 49.460938 L 53 49.460938 Z M 53 44 " clip-rule="nonzero"/></clipPath><clipPath id="1342d347a2"><path d="M 71 33 L 77.148438 33 L 77.148438 40 L 71 40 Z M 71 33 " clip-rule="nonzero"/></clipPath><clipPath id="d73d3a4545"><path d="M 71 12 L 77.148438 12 L 77.148438 19 L 71 19 Z M 71 12 " clip-rule="nonzero"/></clipPath><clipPath id="79c22e75c8"><path d="M 34.128906 12 L 41 12 L 41 19 L 34.128906 19 Z M 34.128906 12 " clip-rule="nonzero"/></clipPath></defs><path fill="#ff8300" d="M 55.613281 10.910156 C 54.625 10.910156 53.640625 11.007812 52.671875 11.199219 C 51.699219 11.390625 50.753906 11.679688 49.839844 12.058594 C 48.921875 12.4375 48.054688 12.902344 47.230469 13.453125 C 46.40625 14.003906 45.644531 14.628906 44.941406 15.328125 C 44.242188 16.03125 43.617188 16.792969 43.066406 17.617188 C 42.515625 18.441406 42.050781 19.3125 41.671875 20.226562 C 41.292969 21.140625 41.003906 22.085938 40.8125 23.058594 C 40.617188 24.03125 40.523438 25.011719 40.523438 26.003906 C 40.523438 26.992188 40.617188 27.972656 40.8125 28.945312 C 41.003906 29.917969 41.292969 30.863281 41.671875 31.777344 C 42.050781 32.695312 42.515625 33.5625 43.066406 34.386719 C 43.617188 35.210938 44.242188 35.972656 44.941406 36.675781 C 45.644531 37.375 46.40625 38 47.230469 38.550781 C 48.054688 39.101562 48.921875 39.566406 49.839844 39.945312 C 50.753906 40.324219 51.699219 40.613281 52.671875 40.804688 C 53.640625 41 54.625 41.09375 55.613281 41.09375 C 56.605469 41.09375 57.585938 41 58.558594 40.804688 C 59.53125 40.613281 60.476562 40.324219 61.390625 39.945312 C 62.304688 39.566406 63.175781 39.101562 64 38.550781 C 64.824219 38 65.585938 37.375 66.289062 36.675781 C 66.988281 35.972656 67.613281 35.210938 68.164062 34.386719 C 68.714844 33.5625 69.179688 32.695312 69.558594 31.777344 C 69.9375 30.863281 70.222656 29.917969 70.417969 28.945312 C 70.609375 27.972656 70.707031 26.992188 70.707031 26.003906 C 70.707031 25.011719 70.609375 24.03125 70.414062 23.058594 C 70.222656 22.085938 69.933594 21.144531 69.554688 20.230469 C 69.175781 19.3125 68.710938 18.445312 68.160156 17.621094 C 67.609375 16.796875 66.984375 16.035156 66.28125 15.335938 C 65.582031 14.632812 64.820312 14.007812 63.996094 13.457031 C 63.171875 12.90625 62.304688 12.441406 61.386719 12.0625 C 60.472656 11.683594 59.53125 11.394531 58.558594 11.203125 C 57.585938 11.007812 56.605469 10.910156 55.613281 10.910156 Z M 55.613281 37.15625 C 54.75 37.15625 53.898438 37.058594 53.054688 36.859375 C 52.214844 36.660156 51.40625 36.367188 50.632812 35.980469 C 49.859375 35.59375 49.140625 35.125 48.476562 34.570312 C 47.8125 34.015625 47.21875 33.390625 46.699219 32.699219 L 55.820312 26.808594 L 64.601562 32.605469 C 64.082031 33.308594 63.492188 33.945312 62.824219 34.511719 C 62.15625 35.078125 61.433594 35.558594 60.652344 35.953125 C 59.871094 36.347656 59.054688 36.648438 58.203125 36.851562 C 57.351562 37.054688 56.488281 37.15625 55.613281 37.15625 Z M 66.351562 29.039062 L 56.914062 22.816406 C 56.589844 22.601562 56.230469 22.492188 55.839844 22.488281 C 55.449219 22.488281 55.089844 22.59375 54.761719 22.804688 L 44.917969 29.164062 C 44.792969 28.75 44.695312 28.332031 44.625 27.90625 C 44.550781 27.484375 44.5 27.054688 44.476562 26.625 C 44.453125 26.195312 44.453125 25.765625 44.480469 25.335938 C 44.507812 24.90625 44.558594 24.476562 44.632812 24.054688 C 44.707031 23.628906 44.808594 23.210938 44.929688 22.796875 C 45.054688 22.386719 45.203125 21.980469 45.375 21.585938 C 45.542969 21.191406 45.738281 20.804688 45.953125 20.433594 C 46.167969 20.058594 46.402344 19.699219 46.660156 19.355469 C 46.917969 19.007812 47.195312 18.679688 47.488281 18.363281 C 47.785156 18.050781 48.097656 17.753906 48.425781 17.476562 C 48.753906 17.199219 49.101562 16.941406 49.460938 16.703125 C 49.820312 16.464844 50.191406 16.25 50.574219 16.054688 C 50.960938 15.859375 51.355469 15.6875 51.757812 15.539062 C 52.164062 15.390625 52.574219 15.265625 52.992188 15.164062 C 53.410156 15.0625 53.835938 14.984375 54.261719 14.933594 C 54.691406 14.878906 55.121094 14.851562 55.550781 14.851562 C 55.980469 14.847656 56.410156 14.871094 56.839844 14.917969 C 57.269531 14.964844 57.691406 15.039062 58.113281 15.132812 C 58.53125 15.230469 58.945312 15.351562 59.351562 15.496094 C 59.757812 15.640625 60.152344 15.804688 60.539062 15.996094 C 60.925781 16.1875 61.300781 16.398438 61.664062 16.632812 C 62.023438 16.867188 62.371094 17.121094 62.707031 17.394531 C 63.039062 17.667969 63.355469 17.960938 63.652344 18.269531 C 63.953125 18.582031 64.230469 18.90625 64.492188 19.25 C 64.753906 19.59375 64.992188 19.949219 65.214844 20.320312 C 65.433594 20.691406 65.628906 21.074219 65.804688 21.46875 C 65.980469 21.859375 66.132812 22.261719 66.261719 22.675781 C 66.390625 23.085938 66.496094 23.503906 66.574219 23.925781 C 66.65625 24.351562 66.710938 24.777344 66.742188 25.207031 C 66.773438 25.636719 66.777344 26.066406 66.761719 26.496094 C 66.742188 26.925781 66.695312 27.355469 66.628906 27.78125 C 66.558594 28.207031 66.46875 28.625 66.351562 29.039062 Z M 66.351562 29.039062 " fill-opacity="1" fill-rule="nonzero"/><g clip-path="url(#1b3c578fed)"><path fill="#ff8300" d="M 53.644531 2.378906 L 57.582031 2.378906 L 57.582031 7.101562 L 53.644531 7.101562 Z M 53.644531 2.378906 " fill-opacity="1" fill-rule="nonzero"/></g><g clip-path="url(#64dfc163ba)"><path fill="#ff8300" d="M 34.171875 36.109375 L 38.265625 33.746094 L 40.234375 37.15625 L 36.140625 39.519531 Z M 34.171875 36.109375 " fill-opacity="1" fill-rule="nonzero"/></g><g clip-path="url(#21b5db2873)"><path fill="#ff8300" d="M 53.644531 44.902344 L 57.582031 44.902344 L 57.582031 49.625 L 53.644531 49.625 Z M 53.644531 44.902344 " fill-opacity="1" fill-rule="nonzero"/></g><g clip-path="url(#1342d347a2)"><path fill="#ff8300" d="M 71 37.15625 L 72.96875 33.746094 L 77.058594 36.109375 L 75.089844 39.519531 Z M 71 37.15625 " fill-opacity="1" fill-rule="nonzero"/></g><g clip-path="url(#d73d3a4545)"><path fill="#ff8300" d="M 71 14.847656 L 75.089844 12.488281 L 77.058594 15.898438 L 72.964844 18.257812 Z M 71 14.847656 " fill-opacity="1" fill-rule="nonzero"/></g><g clip-path="url(#79c22e75c8)"><path fill="#ff8300" d="M 34.171875 15.894531 L 36.140625 12.484375 L 40.230469 14.847656 L 38.261719 18.257812 Z M 34.171875 15.894531 " fill-opacity="1" fill-rule="nonzero"/></g><g fill="#ffffff" fill-opacity="1"><g transform="translate(84.683897, 32.075564)"><g><path d="M 5.75 0.125 C 4.8125 0.125 3.972656 -0.0234375 3.234375 -0.328125 C 2.492188 -0.628906 1.898438 -1.078125 1.453125 -1.671875 C 1.015625 -2.265625 0.785156 -2.976562 0.765625 -3.8125 L 4.078125 -3.8125 C 4.117188 -3.34375 4.28125 -2.984375 4.5625 -2.734375 C 4.84375 -2.484375 5.207031 -2.359375 5.65625 -2.359375 C 6.113281 -2.359375 6.472656 -2.460938 6.734375 -2.671875 C 7.003906 -2.890625 7.140625 -3.1875 7.140625 -3.5625 C 7.140625 -3.875 7.03125 -4.132812 6.8125 -4.34375 C 6.601562 -4.550781 6.34375 -4.71875 6.03125 -4.84375 C 5.726562 -4.976562 5.289062 -5.132812 4.71875 -5.3125 C 3.894531 -5.5625 3.222656 -5.8125 2.703125 -6.0625 C 2.179688 -6.320312 1.734375 -6.695312 1.359375 -7.1875 C 0.984375 -7.6875 0.796875 -8.335938 0.796875 -9.140625 C 0.796875 -10.328125 1.222656 -11.253906 2.078125 -11.921875 C 2.941406 -12.597656 4.066406 -12.9375 5.453125 -12.9375 C 6.859375 -12.9375 7.988281 -12.597656 8.84375 -11.921875 C 9.707031 -11.253906 10.171875 -10.320312 10.234375 -9.125 L 6.875 -9.125 C 6.84375 -9.53125 6.6875 -9.851562 6.40625 -10.09375 C 6.132812 -10.332031 5.78125 -10.453125 5.34375 -10.453125 C 4.96875 -10.453125 4.664062 -10.347656 4.4375 -10.140625 C 4.207031 -9.941406 4.09375 -9.65625 4.09375 -9.28125 C 4.09375 -8.875 4.285156 -8.554688 4.671875 -8.328125 C 5.054688 -8.097656 5.660156 -7.847656 6.484375 -7.578125 C 7.304688 -7.296875 7.972656 -7.023438 8.484375 -6.765625 C 9.003906 -6.515625 9.453125 -6.144531 9.828125 -5.65625 C 10.203125 -5.175781 10.390625 -4.554688 10.390625 -3.796875 C 10.390625 -3.066406 10.203125 -2.40625 9.828125 -1.8125 C 9.460938 -1.21875 8.925781 -0.742188 8.21875 -0.390625 C 7.519531 -0.046875 6.695312 0.125 5.75 0.125 Z M 5.75 0.125 "/></g></g></g><g fill="#ffffff" fill-opacity="1"><g transform="translate(98.12619, 32.075564)"><g><path d="M 5.75 0.140625 C 4.75 0.140625 3.851562 -0.0664062 3.0625 -0.484375 C 2.269531 -0.910156 1.644531 -1.515625 1.1875 -2.296875 C 0.738281 -3.085938 0.515625 -4.007812 0.515625 -5.0625 C 0.515625 -6.101562 0.742188 -7.019531 1.203125 -7.8125 C 1.660156 -8.613281 2.285156 -9.222656 3.078125 -9.640625 C 3.878906 -10.066406 4.78125 -10.28125 5.78125 -10.28125 C 6.769531 -10.28125 7.664062 -10.066406 8.46875 -9.640625 C 9.269531 -9.222656 9.898438 -8.613281 10.359375 -7.8125 C 10.816406 -7.019531 11.046875 -6.101562 11.046875 -5.0625 C 11.046875 -4.019531 10.8125 -3.101562 10.34375 -2.3125 C 9.882812 -1.519531 9.25 -0.910156 8.4375 -0.484375 C 7.632812 -0.0664062 6.738281 0.140625 5.75 0.140625 Z M 5.75 -2.546875 C 6.332031 -2.546875 6.832031 -2.765625 7.25 -3.203125 C 7.675781 -3.640625 7.890625 -4.257812 7.890625 -5.0625 C 7.890625 -5.875 7.6875 -6.5 7.28125 -6.9375 C 6.875 -7.375 6.375 -7.59375 5.78125 -7.59375 C 5.175781 -7.59375 4.671875 -7.378906 4.265625 -6.953125 C 3.867188 -6.523438 3.671875 -5.894531 3.671875 -5.0625 C 3.671875 -4.257812 3.867188 -3.640625 4.265625 -3.203125 C 4.660156 -2.765625 5.15625 -2.546875 5.75 -2.546875 Z M 5.75 -2.546875 "/></g></g></g><g fill="#ffffff" fill-opacity="1"><g transform="translate(111.968099, 32.075564)"><g><path d="M 4.234375 -13.453125 L 4.234375 0 L 1.125 0 L 1.125 -13.453125 Z M 4.234375 -13.453125 "/></g></g></g><g fill="#ffffff" fill-opacity="1"><g transform="translate(119.597837, 32.075564)"><g><path d="M 0.515625 -5.09375 C 0.515625 -6.132812 0.707031 -7.046875 1.09375 -7.828125 C 1.488281 -8.617188 2.023438 -9.222656 2.703125 -9.640625 C 3.378906 -10.066406 4.140625 -10.28125 4.984375 -10.28125 C 5.691406 -10.28125 6.316406 -10.132812 6.859375 -9.84375 C 7.398438 -9.550781 7.816406 -9.171875 8.109375 -8.703125 L 8.109375 -10.140625 L 11.21875 -10.140625 L 11.21875 0 L 8.109375 0 L 8.109375 -1.4375 C 7.804688 -0.96875 7.382812 -0.585938 6.84375 -0.296875 C 6.300781 -0.00390625 5.671875 0.140625 4.953125 0.140625 C 4.128906 0.140625 3.378906 -0.0703125 2.703125 -0.5 C 2.023438 -0.925781 1.488281 -1.535156 1.09375 -2.328125 C 0.707031 -3.128906 0.515625 -4.050781 0.515625 -5.09375 Z M 8.109375 -5.0625 C 8.109375 -5.84375 7.890625 -6.457031 7.453125 -6.90625 C 7.023438 -7.351562 6.503906 -7.578125 5.890625 -7.578125 C 5.265625 -7.578125 4.738281 -7.351562 4.3125 -6.90625 C 3.882812 -6.46875 3.671875 -5.863281 3.671875 -5.09375 C 3.671875 -4.3125 3.882812 -3.691406 4.3125 -3.234375 C 4.738281 -2.785156 5.265625 -2.5625 5.890625 -2.5625 C 6.503906 -2.5625 7.023438 -2.785156 7.453125 -3.234375 C 7.890625 -3.679688 8.109375 -4.289062 8.109375 -5.0625 Z M 8.109375 -5.0625 "/></g></g></g><g fill="#ffffff" fill-opacity="1"><g transform="translate(134.20264, 32.075564)"><g><path d="M 4.234375 -8.453125 C 4.597656 -9.003906 5.050781 -9.441406 5.59375 -9.765625 C 6.144531 -10.085938 6.753906 -10.25 7.421875 -10.25 L 7.421875 -6.953125 L 6.5625 -6.953125 C 5.78125 -6.953125 5.195312 -6.785156 4.8125 -6.453125 C 4.425781 -6.117188 4.234375 -5.535156 4.234375 -4.703125 L 4.234375 0 L 1.125 0 L 1.125 -10.140625 L 4.234375 -10.140625 Z M 4.234375 -8.453125 "/></g></g></g><g fill="#ffffff" fill-opacity="1"><g transform="translate(144.248221, 32.075564)"><g><path d="M 15.578125 -12.75 L 15.578125 0 L 12.46875 0 L 12.46875 -7.65625 L 9.609375 0 L 7.109375 0 L 4.234375 -7.671875 L 4.234375 0 L 1.125 0 L 1.125 -12.75 L 4.796875 -12.75 L 8.375 -3.921875 L 11.921875 -12.75 Z M 15.578125 -12.75 "/></g></g></g><g fill="#ffffff" fill-opacity="1"><g transform="translate(163.194278, 32.075564)"><g><path d="M 10.6875 -5.234375 C 10.6875 -4.941406 10.664062 -4.640625 10.625 -4.328125 L 3.59375 -4.328125 C 3.644531 -3.691406 3.847656 -3.207031 4.203125 -2.875 C 4.566406 -2.539062 5.007812 -2.375 5.53125 -2.375 C 6.300781 -2.375 6.835938 -2.703125 7.140625 -3.359375 L 10.453125 -3.359375 C 10.273438 -2.691406 9.96875 -2.09375 9.53125 -1.5625 C 9.09375 -1.03125 8.539062 -0.613281 7.875 -0.3125 C 7.207031 -0.0078125 6.460938 0.140625 5.640625 0.140625 C 4.640625 0.140625 3.75 -0.0664062 2.96875 -0.484375 C 2.195312 -0.910156 1.59375 -1.515625 1.15625 -2.296875 C 0.726562 -3.085938 0.515625 -4.007812 0.515625 -5.0625 C 0.515625 -6.125 0.726562 -7.046875 1.15625 -7.828125 C 1.582031 -8.617188 2.179688 -9.222656 2.953125 -9.640625 C 3.734375 -10.066406 4.628906 -10.28125 5.640625 -10.28125 C 6.617188 -10.28125 7.488281 -10.070312 8.25 -9.65625 C 9.007812 -9.25 9.601562 -8.664062 10.03125 -7.90625 C 10.46875 -7.144531 10.6875 -6.253906 10.6875 -5.234375 Z M 7.5 -6.046875 C 7.5 -6.578125 7.316406 -7 6.953125 -7.3125 C 6.597656 -7.632812 6.144531 -7.796875 5.59375 -7.796875 C 5.070312 -7.796875 4.632812 -7.644531 4.28125 -7.34375 C 3.925781 -7.039062 3.703125 -6.609375 3.609375 -6.046875 Z M 7.5 -6.046875 "/></g></g></g><g fill="#ffffff" fill-opacity="1"><g transform="translate(176.654733, 32.075564)"><g><path d="M 7.3125 -10.25 C 8.488281 -10.25 9.429688 -9.863281 10.140625 -9.09375 C 10.859375 -8.320312 11.21875 -7.265625 11.21875 -5.921875 L 11.21875 0 L 8.125 0 L 8.125 -5.5 C 8.125 -6.1875 7.945312 -6.71875 7.59375 -7.09375 C 7.238281 -7.46875 6.765625 -7.65625 6.171875 -7.65625 C 5.578125 -7.65625 5.101562 -7.46875 4.75 -7.09375 C 4.40625 -6.71875 4.234375 -6.1875 4.234375 -5.5 L 4.234375 0 L 1.125 0 L 1.125 -10.140625 L 4.234375 -10.140625 L 4.234375 -8.796875 C 4.546875 -9.242188 4.96875 -9.597656 5.5 -9.859375 C 6.039062 -10.117188 6.644531 -10.25 7.3125 -10.25 Z M 7.3125 -10.25 "/></g></g></g><g fill="#ffffff" fill-opacity="1"><g transform="translate(191.168712, 32.075564)"><g><path d="M 6.78125 -2.640625 L 6.78125 0 L 5.203125 0 C 4.066406 0 3.1875 -0.273438 2.5625 -0.828125 C 1.9375 -1.378906 1.625 -2.28125 1.625 -3.53125 L 1.625 -7.5625 L 0.375 -7.5625 L 0.375 -10.140625 L 1.625 -10.140625 L 1.625 -12.609375 L 4.71875 -12.609375 L 4.71875 -10.140625 L 6.765625 -10.140625 L 6.765625 -7.5625 L 4.71875 -7.5625 L 4.71875 -3.484375 C 4.71875 -3.179688 4.789062 -2.960938 4.9375 -2.828125 C 5.082031 -2.703125 5.328125 -2.640625 5.671875 -2.640625 Z M 6.78125 -2.640625 "/></g></g></g><g fill="#ffffff" fill-opacity="1"><g transform="translate(200.814678, 32.075564)"><g><path d="M 10.6875 -5.234375 C 10.6875 -4.941406 10.664062 -4.640625 10.625 -4.328125 L 3.59375 -4.328125 C 3.644531 -3.691406 3.847656 -3.207031 4.203125 -2.875 C 4.566406 -2.539062 5.007812 -2.375 5.53125 -2.375 C 6.300781 -2.375 6.835938 -2.703125 7.140625 -3.359375 L 10.453125 -3.359375 C 10.273438 -2.691406 9.96875 -2.09375 9.53125 -1.5625 C 9.09375 -1.03125 8.539062 -0.613281 7.875 -0.3125 C 7.207031 -0.0078125 6.460938 0.140625 5.640625 0.140625 C 4.640625 0.140625 3.75 -0.0664062 2.96875 -0.484375 C 2.195312 -0.910156 1.59375 -1.515625 1.15625 -2.296875 C 0.726562 -3.085938 0.515625 -4.007812 0.515625 -5.0625 C 0.515625 -6.125 0.726562 -7.046875 1.15625 -7.828125 C 1.582031 -8.617188 2.179688 -9.222656 2.953125 -9.640625 C 3.734375 -10.066406 4.628906 -10.28125 5.640625 -10.28125 C 6.617188 -10.28125 7.488281 -10.070312 8.25 -9.65625 C 9.007812 -9.25 9.601562 -8.664062 10.03125 -7.90625 C 10.46875 -7.144531 10.6875 -6.253906 10.6875 -5.234375 Z M 7.5 -6.046875 C 7.5 -6.578125 7.316406 -7 6.953125 -7.3125 C 6.597656 -7.632812 6.144531 -7.796875 5.59375 -7.796875 C 5.070312 -7.796875 4.632812 -7.644531 4.28125 -7.34375 C 3.925781 -7.039062 3.703125 -6.609375 3.609375 -6.046875 Z M 7.5 -6.046875 "/></g></g></g></svg>